<?xml version="1.0" encoding="iso-8859-1"?>
<!-- Uploaded to: SVG Repo, www.svgrepo.com, Generator: SVG Repo Mixer Tools -->
<!DOCTYPE svg PUBLIC "-//W3C//DTD SVG 1.1//EN" "http://www.w3.org/Graphics/SVG/1.1/DTD/svg11.dtd">
<svg fill="#000000" height="800px" width="800px" version="1.1" id="Capa_1" xmlns="http://www.w3.org/2000/svg" xmlns:xlink="http://www.w3.org/1999/xlink" 
	 viewBox="0 0 429.832 429.832" xml:space="preserve">
<g>
	<path d="M333.318,0H96.515C79.759,0,66.127,13.632,66.127,30.387v369.058c0,16.755,13.632,30.387,30.387,30.387h236.803
		c16.755,0,30.387-13.632,30.387-30.387V30.387C363.705,13.632,350.073,0,333.318,0z M353.705,399.445
		c0,11.242-9.146,20.387-20.387,20.387H96.515c-11.242,0-20.387-9.146-20.387-20.387V30.387C76.127,19.146,85.273,10,96.515,10
		h236.803c11.242,0,20.387,9.146,20.387,20.387V399.445z"/>
	<path d="M333.318,18H96.515c-6.831,0-12.388,5.557-12.388,12.387v369.058c0,6.831,5.557,12.388,12.388,12.388h236.803
		c6.831,0,12.387-5.557,12.387-12.388V30.387C345.705,23.557,340.148,18,333.318,18z M335.705,399.445
		c0,1.316-1.071,2.388-2.387,2.388H96.515c-1.316,0-2.388-1.071-2.388-2.388V30.387c0-1.316,1.071-2.387,2.388-2.387h236.803
		c1.316,0,2.387,1.071,2.387,2.387V399.445z"/>
	<path d="M322.705,36H107.127c-2.761,0-5,2.239-5,5v70.284c0,2.761,2.239,5,5,5h215.578c2.761,0,5-2.239,5-5V41
		C327.705,38.238,325.466,36,322.705,36z M317.705,106.284H112.127V46h205.578V106.284z"/>
	<path d="M141.622,125.953h-28.599c-6.011,0-10.9,4.89-10.9,10.901v25.378c0,6.01,4.89,10.9,10.9,10.9h28.599
		c6.011,0,10.901-4.89,10.901-10.9v-25.378C152.523,130.843,147.633,125.953,141.622,125.953z M142.523,162.232
		c0,0.497-0.404,0.9-0.901,0.9h-28.599c-0.497,0-0.9-0.404-0.9-0.9v-25.378c0-0.497,0.404-0.901,0.9-0.901h28.599
		c0.497,0,0.901,0.404,0.901,0.901V162.232z"/>
	<path d="M141.622,181.133h-28.599c-6.011,0-10.9,4.89-10.9,10.901v25.369c0,6.011,4.89,10.901,10.9,10.901h28.599
		c6.011,0,10.901-4.89,10.901-10.901v-25.369C152.523,186.023,147.633,181.133,141.622,181.133z M142.523,217.402
		c0,0.497-0.404,0.901-0.901,0.901h-28.599c-0.497,0-0.9-0.404-0.9-0.901v-25.369c0-0.497,0.404-0.901,0.9-0.901h28.599
		c0.497,0,0.901,0.404,0.901,0.901V217.402z"/>
	<path d="M141.622,236.303h-28.599c-6.011,0-10.9,4.89-10.9,10.901v25.378c0,6.011,4.89,10.901,10.9,10.901h28.599
		c6.011,0,10.901-4.89,10.901-10.901v-25.378C152.523,241.193,147.633,236.303,141.622,236.303z M142.523,272.582
		c0,0.497-0.404,0.901-0.901,0.901h-28.599c-0.497,0-0.9-0.404-0.9-0.901v-25.378c0-0.497,0.404-0.901,0.9-0.901h28.599
		c0.497,0,0.901,0.404,0.901,0.901V272.582z"/>
	<path d="M141.622,291.483h-28.599c-6.011,0-10.9,4.89-10.9,10.901v25.369c0,6.011,4.89,10.9,10.9,10.9h28.599
		c6.011,0,10.901-4.89,10.901-10.9v-25.369C152.523,296.373,147.633,291.483,141.622,291.483z M142.523,327.752
		c0,0.497-0.404,0.9-0.901,0.9h-28.599c-0.497,0-0.9-0.404-0.9-0.9v-25.369c0-0.497,0.404-0.901,0.9-0.901h28.599
		c0.497,0,0.901,0.404,0.901,0.901V327.752z"/>
	<path d="M141.622,346.653h-28.599c-6.011,0-10.9,4.89-10.9,10.901v25.378c0,6.011,4.89,10.901,10.9,10.901h28.599
		c6.011,0,10.901-4.89,10.901-10.901v-25.378C152.523,351.543,147.633,346.653,141.622,346.653z M142.523,382.932
		c0,0.497-0.404,0.901-0.901,0.901h-28.599c-0.497,0-0.9-0.404-0.9-0.901v-25.378c0-0.497,0.404-0.901,0.9-0.901h28.599
		c0.497,0,0.901,0.404,0.901,0.901V382.932z"/>
	<path d="M200.013,125.953h-28.588c-6.011,0-10.901,4.89-10.901,10.901v25.378c0,6.01,4.89,10.9,10.901,10.9h28.588
		c6.01,0,10.9-4.89,10.9-10.9v-25.378C210.913,130.843,206.023,125.953,200.013,125.953z M200.913,162.232
		c0,0.497-0.404,0.9-0.9,0.9h-28.588c-0.497,0-0.901-0.404-0.901-0.9v-25.378c0-0.497,0.404-0.901,0.901-0.901h28.588
		c0.497,0,0.9,0.404,0.9,0.901V162.232z"/>
	<path d="M200.013,181.133h-28.588c-6.011,0-10.901,4.89-10.901,10.901v25.369c0,6.011,4.89,10.901,10.901,10.901h28.588
		c6.01,0,10.9-4.89,10.9-10.901v-25.369C210.913,186.023,206.023,181.133,200.013,181.133z M200.913,217.402
		c0,0.497-0.404,0.901-0.9,0.901h-28.588c-0.497,0-0.901-0.404-0.901-0.901v-25.369c0-0.497,0.404-0.901,0.901-0.901h28.588
		c0.497,0,0.9,0.404,0.9,0.901V217.402z"/>
	<path d="M200.013,236.303h-28.588c-6.011,0-10.901,4.89-10.901,10.901v25.378c0,6.011,4.89,10.901,10.901,10.901h28.588
		c6.01,0,10.9-4.89,10.9-10.901v-25.378C210.913,241.193,206.023,236.303,200.013,236.303z M200.913,272.582
		c0,0.497-0.404,0.901-0.9,0.901h-28.588c-0.497,0-0.901-0.404-0.901-0.901v-25.378c0-0.497,0.404-0.901,0.901-0.901h28.588
		c0.497,0,0.9,0.404,0.9,0.901V272.582z"/>
	<path d="M200.013,291.483h-28.588c-6.011,0-10.901,4.89-10.901,10.901v25.369c0,6.011,4.89,10.9,10.901,10.9h28.588
		c6.01,0,10.9-4.89,10.9-10.9v-25.369C210.913,296.373,206.023,291.483,200.013,291.483z M200.913,327.752
		c0,0.497-0.404,0.9-0.9,0.9h-28.588c-0.497,0-0.901-0.404-0.901-0.9v-25.369c0-0.497,0.404-0.901,0.901-0.901h28.588
		c0.497,0,0.9,0.404,0.9,0.901V327.752z"/>
	<path d="M200.013,346.653h-28.588c-6.011,0-10.901,4.89-10.901,10.901v25.378c0,6.011,4.89,10.901,10.901,10.901h28.588
		c6.01,0,10.9-4.89,10.9-10.901v-25.378C210.913,351.543,206.023,346.653,200.013,346.653z M200.913,382.932
		c0,0.497-0.404,0.901-0.9,0.901h-28.588c-0.497,0-0.901-0.404-0.901-0.901v-25.378c0-0.497,0.404-0.901,0.901-0.901h28.588
		c0.497,0,0.9,0.404,0.9,0.901V382.932z"/>
	<path d="M316.803,125.953h-28.588c-6.011,0-10.901,4.89-10.901,10.901v25.378c0,6.01,4.89,10.9,10.901,10.9h28.588
		c6.01,0,10.9-4.89,10.9-10.9v-25.378C327.703,130.843,322.813,125.953,316.803,125.953z M317.703,162.232
		c0,0.497-0.404,0.9-0.9,0.9h-28.588c-0.497,0-0.901-0.404-0.901-0.9v-25.378c0-0.497,0.404-0.901,0.901-0.901h28.588
		c0.497,0,0.9,0.404,0.9,0.901V162.232z"/>
	<path d="M316.803,181.133h-28.588c-6.011,0-10.901,4.89-10.901,10.901v25.369c0,6.011,4.89,10.901,10.901,10.901h28.588
		c6.01,0,10.9-4.89,10.9-10.901v-25.369C327.703,186.023,322.813,181.133,316.803,181.133z M317.703,217.402
		c0,0.497-0.404,0.901-0.9,0.901h-28.588c-0.497,0-0.901-0.404-0.901-0.901v-25.369c0-0.497,0.404-0.901,0.901-0.901h28.588
		c0.497,0,0.9,0.404,0.9,0.901V217.402z"/>
	<path d="M316.803,236.303h-28.588c-6.011,0-10.901,4.89-10.901,10.901v25.378c0,6.011,4.89,10.901,10.901,10.901h28.588
		c6.01,0,10.9-4.89,10.9-10.901v-25.378C327.703,241.193,322.813,236.303,316.803,236.303z M317.703,272.582
		c0,0.497-0.404,0.901-0.9,0.901h-28.588c-0.497,0-0.901-0.404-0.901-0.901v-25.378c0-0.497,0.404-0.901,0.901-0.901h28.588
		c0.497,0,0.9,0.404,0.9,0.901V272.582z"/>
	<path d="M316.803,291.483h-28.588c-6.011,0-10.901,4.89-10.901,10.901v25.369c0,6.011,4.89,10.9,10.901,10.9h28.588
		c6.01,0,10.9-4.89,10.9-10.9v-25.369C327.703,296.373,322.813,291.483,316.803,291.483z M317.703,327.752
		c0,0.497-0.404,0.9-0.9,0.9h-28.588c-0.497,0-0.901-0.404-0.901-0.9v-25.369c0-0.497,0.404-0.901,0.901-0.901h28.588
		c0.497,0,0.9,0.404,0.9,0.901V327.752z"/>
	<path d="M316.803,346.653h-28.588c-6.011,0-10.901,4.89-10.901,10.901v25.378c0,6.011,4.89,10.901,10.901,10.901h28.588
		c6.01,0,10.9-4.89,10.9-10.901v-25.378C327.703,351.543,322.813,346.653,316.803,346.653z M317.703,382.932
		c0,0.497-0.404,0.901-0.9,0.901h-28.588c-0.497,0-0.901-0.404-0.901-0.901v-25.378c0-0.497,0.404-0.901,0.901-0.901h28.588
		c0.497,0,0.9,0.404,0.9,0.901V382.932z"/>
	<path d="M258.412,125.953h-28.599c-6.011,0-10.901,4.89-10.901,10.901v25.378c0,6.01,4.89,10.9,10.901,10.9h28.599
		c6.011,0,10.901-4.89,10.901-10.9v-25.378C269.313,130.843,264.423,125.953,258.412,125.953z M259.313,162.232
		c0,0.497-0.404,0.9-0.901,0.9h-28.599c-0.497,0-0.901-0.404-0.901-0.9v-25.378c0-0.497,0.404-0.901,0.901-0.901h28.599
		c0.497,0,0.901,0.404,0.901,0.901V162.232z"/>
	<path d="M258.412,181.133h-28.599c-6.011,0-10.901,4.89-10.901,10.901v25.369c0,6.011,4.89,10.901,10.901,10.901h28.599
		c6.011,0,10.901-4.89,10.901-10.901v-25.369C269.313,186.023,264.423,181.133,258.412,181.133z M259.313,217.402
		c0,0.497-0.404,0.901-0.901,0.901h-28.599c-0.497,0-0.901-0.404-0.901-0.901v-25.369c0-0.497,0.404-0.901,0.901-0.901h28.599
		c0.497,0,0.901,0.404,0.901,0.901V217.402z"/>
	<path d="M258.412,236.303h-28.599c-6.011,0-10.901,4.89-10.901,10.901v25.378c0,6.011,4.89,10.901,10.901,10.901h28.599
		c6.011,0,10.901-4.89,10.901-10.901v-25.378C269.313,241.193,264.423,236.303,258.412,236.303z M259.313,272.582
		c0,0.497-0.404,0.901-0.901,0.901h-28.599c-0.497,0-0.901-0.404-0.901-0.901v-25.378c0-0.497,0.404-0.901,0.901-0.901h28.599
		c0.497,0,0.901,0.404,0.901,0.901V272.582z"/>
	<path d="M258.412,291.483h-28.599c-6.011,0-10.901,4.89-10.901,10.901v25.369c0,6.011,4.89,10.9,10.901,10.9h28.599
		c6.011,0,10.901-4.89,10.901-10.9v-25.369C269.313,296.373,264.423,291.483,258.412,291.483z M259.313,327.752
		c0,0.497-0.404,0.9-0.901,0.9h-28.599c-0.497,0-0.901-0.404-0.901-0.9v-25.369c0-0.497,0.404-0.901,0.901-0.901h28.599
		c0.497,0,0.901,0.404,0.901,0.901V327.752z"/>
	<path d="M258.412,346.653h-28.599c-6.011,0-10.901,4.89-10.901,10.901v25.378c0,6.011,4.89,10.901,10.901,10.901h28.599
		c6.011,0,10.901-4.89,10.901-10.901v-25.378C269.313,351.543,264.423,346.653,258.412,346.653z M259.313,382.932
		c0,0.497-0.404,0.901-0.901,0.901h-28.599c-0.497,0-0.901-0.404-0.901-0.901v-25.378c0-0.497,0.404-0.901,0.901-0.901h28.599
		c0.497,0,0.901,0.404,0.901,0.901V382.932z"/>
	<path d="M120.503,60.053h54c2.761,0,5-2.239,5-5s-2.239-5-5-5h-54c-2.761,0-5,2.239-5,5S117.742,60.053,120.503,60.053z"/>
	<path d="M271.503,102.053h38c2.761,0,5-2.239,5-5s-2.239-5-5-5h-38c-2.761,0-5,2.239-5,5S268.742,102.053,271.503,102.053z"/>
	<path d="M258.599,102.055c1.32,0,2.61-0.54,3.54-1.47c0.93-0.93,1.46-2.22,1.46-3.53c0-1.32-0.53-2.61-1.46-3.54
		c-0.93-0.93-2.22-1.46-3.54-1.46c-1.31,0-2.6,0.53-3.53,1.46c-0.93,0.93-1.47,2.22-1.47,3.54c0,1.31,0.54,2.6,1.47,3.53
		C255.999,101.515,257.289,102.055,258.599,102.055z"/>
	<path d="M151.609,64.155c-1.32,0-2.61,0.53-3.54,1.46c-0.93,0.93-1.46,2.22-1.46,3.54c0,1.32,0.53,2.6,1.46,3.53
		c0.93,0.93,2.22,1.47,3.54,1.47c1.31,0,2.6-0.54,3.53-1.47c0.93-0.93,1.46-2.21,1.46-3.53c0-1.32-0.53-2.61-1.46-3.54
		C154.209,64.685,152.919,64.155,151.609,64.155z"/>
	<path d="M120.503,74.153h18c2.761,0,5-2.239,5-5s-2.239-5-5-5h-18c-2.761,0-5,2.239-5,5S117.742,74.153,120.503,74.153z"/>
</g>
</svg>